<?xml version="1.0" encoding="UTF-8"?>
<svg version="1.1" xmlns="http://www.w3.org/2000/svg" width="1024" height="1024">
<path d="M0 0 C337.92 0 675.84 0 1024 0 C1024 337.92 1024 675.84 1024 1024 C686.08 1024 348.16 1024 0 1024 C0 686.08 0 348.16 0 0 Z " fill="#060708" transform="translate(0,0)"/>
<path d="M0 0 C69.63 0 139.26 0 211 0 C211 9.9 211 19.8 211 30 C223.54 30 236.08 30 249 30 C249 38.25 249 46.5 249 55 C256.92 55 264.84 55 273 55 C273 99.22 273 143.44 273 189 C265.08 189 257.16 189 249 189 C249 197.91 249 206.82 249 216 C235.8 216 222.6 216 209 216 C209 224.25 209 232.5 209 241 C171.71 241 134.42 241 96 241 C96 291.16 96 341.32 96 393 C64.32 393 32.64 393 0 393 C0 263.31 0 133.62 0 0 Z " fill="#FDFDFD" transform="translate(540,313)"/>
<path d="M0 0 C96.03 0 192.06 0 291 0 C291 29.7 291 59.4 291 90 C259.98 90 228.96 90 197 90 C197 190.32 197 290.64 197 394 C163.01 394 129.02 394 94 394 C94 293.68 94 193.36 94 90 C62.98 90 31.96 90 0 90 C0 60.3 0 30.6 0 0 Z " fill="#FCFCFC" transform="translate(210,313)"/>
<path d="M0 0 C24.09 0 48.18 0 73 0 C73 3.63 73 7.26 73 11 C78.94 11 84.88 11 91 11 C91 32.78 91 54.56 91 77 C85.06 77 79.12 77 73 77 C73 81.29 73 85.58 73 90 C48.91 90 24.82 90 0 90 C0 60.3 0 30.6 0 0 Z " fill="#08090A" transform="translate(636,389)"/>
</svg>
